<svg xmlns="http://www.w3.org/2000/svg" id="Layer_2" data-name="Layer 2" viewBox="0 0 102.88 49.96"><g id="RETROEXCAVADORA"><path d="M102.65,47.64s-3.39-2.23-7.41-11.13l-4.12-.55s-.76,.45-1.48,.98c-.67,.5-1.62,.34-2.07-.36-1.77-2.75-5.76-8.38-9.24-9.15-.57-.13-.99-.56-1.13-1.12-.18-.73-.83-1.61-2.86-1.94,0,0-10.22-2.84-13.3-3.16-.05,0-.14-.07-.14-.12,0-.78,.02-7.32,.03-8.36,0-.09,0-.19,.03-.28l.37-1.83s-.58-1.24-1.46-.15l-.5,1.77c-.02,.13-.03,.26-.05,.39l-.02,8.47c-.31,0-1.35,.02-2.55,.02-.54-.45-.88-.75-1.42-1.2l-1.66-9.75c-.05-.17-.06-.25-.06-.25t0-.02c.31-.22,.96-1.03,.96-1.52,0-1.04-.52-1.61-1.41-1.72H30.34c-.68,0-1.5,.52-1.45,1.51,.03,.39,.24,.87,.57,1.21,.39,.39,.56,.95,.38,1.47l-.72,2.04c-.43,1.22-1.65,1.53-2.42,.84-2.8-2.53-8.47-7.7-10.35-9.93-.24-.29-.35-.67-.32-1.05l.09-.99s.15-1.24-.87-1.46l-3.14-.3-.44,.95L.39,24.3c-.35,.72-.47,1.52-.33,2.31,.36,2.12,1.77,5.97,7.32,6.19,0,0,6.47,.49,7.51-7.88,.21-1.61-4.9,5.78-8.97,.82,0,0,5.77-10.54,7.17-13.54,.45-.96,1.73-1.12,2.41-.32,2.82,3.39,8.77,10.29,10.92,11.19,.04,.02,.06,.05,.05,.09-.17,.78-2.16,8.05-2.16,8.05,0,0,.27,1.55,1.52,.6,0,0,4.58-9.83,17.43-5.38,.14,.04,1.98,.96,2.25,1.31,1.24,.87,5.61,4.5,4.69,12.97,0,0-.12,1.94,1.45,1.89h10.05s1.35,.1,1.43-1.52c.03-.75,.63-1.36,1.38-1.4,0,0,.04,0,.11,0,.24,0,.82-.09,1.03-.92,.02-.08,.2-.55,.24-.62,1.35-2.46,5.81-4.8,10.35-2.19,.15,.09,.28,.19,.4,.3,.47,.42,1.75,1.4,2.17-.09l-.08-1.97s0-.49,1.21,.13c0,0,2.91,2.13,5.97,5.61,.02,.06-.03,.33-.02,.69,.16,2,1.77,9.84,16.77,7.8,0,0,.51-.37,0-.81ZM41.46,23.04c-3.5-1.17-7.62,0-7.62,0l1.1-13.21c.03-.39,.07-.69,.13-.89,.09-.33,.38-.55,.71-.55h5.72l-.03,14.65Zm1.81,.47l.07-15.12h6.47c.27,0,.54,.07,.77,.21,.38,.25,.87,.74,.92,1.66l3.14,17.37-5.22-.03s-2.12-3.39-6.15-4.09Zm11.85,10.01l-3.48,.02s-.11-3.43-1.7-4.89l4.85-.02s.65,2.83,.33,4.89Z"/><path d="M37.41,26.39c-6.59,0-11.93,5.14-11.93,11.49s5.34,11.49,11.93,11.49,11.92-5.14,11.92-11.49-5.34-11.49-11.92-11.49Zm.15,17.32c-3.34,0-6.05-2.66-6.05-5.94s2.71-5.95,6.05-5.95,6.05,2.67,6.05,5.95-2.71,5.94-6.05,5.94Z"/><path d="M72.43,36.17c-3.87,0-7,3.09-7,6.89s3.14,6.89,7,6.89,7-3.09,7-6.89-3.14-6.89-7-6.89Zm.06,10.81c-2.18,0-3.94-1.73-3.94-3.87s1.77-3.87,3.94-3.87,3.93,1.73,3.93,3.87-1.77,3.87-3.93,3.87Z"/></g></svg>